<?xml version="1.0" standalone="no"?>
<!DOCTYPE svg PUBLIC "-//W3C//DTD SVG 20010904//EN"
 "http://www.w3.org/TR/2001/REC-SVG-20010904/DTD/svg10.dtd">
<svg version="1.0" xmlns="http://www.w3.org/2000/svg"
 width="20" height="20" viewBox="0 0 20 20"
 preserveAspectRatio="xMidYMid meet">

<g transform="translate(0.000000,20) scale(0.100000,-0.100000)"
fill="#000000" stroke="none">
<path d="M12045 18211 c-188 -68 -573 -334 -970 -670 -307 -260 -459 -435
-515 -590 -63 -173 -91 -438 -91 -846 0 -148 -1 -301 -2 -340 -2 -59 5 -89 38
-185 37 -107 40 -123 40 -225 0 -60 -4 -171 -9 -246 -11 -166 3 -244 69 -376
74 -150 181 -261 300 -309 25 -11 48 -27 51 -36 3 -10 23 -44 45 -77 42 -63
133 -134 188 -146 28 -6 30 -9 51 -123 42 -222 99 -343 219 -462 81 -80 146
-121 441 -274 l155 -81 -45 -3 c-104 -5 -160 -33 -181 -90 -10 -27 -34 -181
-44 -288 l-7 -70 -41 -12 c-44 -11 -249 -139 -577 -359 -247 -165 -296 -202
-327 -248 -39 -58 -110 -226 -170 -400 -40 -118 -90 -233 -191 -435 l-137
-275 -6 545 c-3 300 -9 601 -13 670 -7 120 -6 127 18 180 14 30 37 96 52 145
24 79 28 107 28 235 l1 145 -34 70 c-21 43 -55 89 -86 120 -52 50 -52 51 -57
122 l-5 73 34 6 c19 4 42 18 54 33 18 22 20 36 17 96 -5 71 -41 164 -72 182
-10 6 -15 50 -19 183 -17 528 -116 917 -305 1199 -164 247 -450 435 -866 570
-226 74 -546 122 -671 101 -37 -6 -56 -5 -72 6 -29 18 -113 18 -139 0 -16 -12
-30 -13 -65 -4 -107 24 -380 -30 -624 -125 -525 -203 -949 -655 -1143 -1217
-92 -267 -174 -652 -236 -1105 -13 -99 -43 -256 -66 -350 -256 -1055 -684
-3402 -956 -5245 -70 -477 -95 -636 -249 -1560 -272 -1637 -333 -2099 -295
-2240 30 -111 96 -196 211 -270 127 -82 322 -134 613 -165 83 -8 151 -16 152
-18 8 -9 -92 -544 -152 -810 -24 -109 -44 -215 -44 -236 0 -127 175 -283 376
-336 38 -10 73 -21 77 -25 7 -6 -4 -97 -19 -148 -5 -19 3 -32 43 -71 64 -61
137 -103 248 -140 172 -57 320 -64 550 -26 l150 24 80 -38 c293 -140 568 -156
1171 -65 l170 26 117 -26 c208 -47 470 -76 692 -76 181 0 454 43 669 105 l80
23 100 -21 c84 -17 137 -21 311 -21 244 0 306 12 458 88 l87 44 168 -5 c100
-3 281 1 454 11 157 9 360 16 450 16 298 0 772 34 885 63 73 19 138 61 157
101 30 63 18 327 -21 453 l-15 52 36 63 c134 233 144 283 83 412 -42 88 -43
99 -21 193 19 82 14 138 -27 295 -26 99 -31 143 -41 350 -7 131 -10 239 -7
242 2 2 73 2 157 -1 l152 -6 0 -88 c0 -48 6 -168 14 -266 28 -343 30 -397 12
-430 -8 -17 -45 -63 -81 -102 -59 -65 -65 -75 -65 -114 0 -59 24 -134 78 -246
30 -63 54 -99 72 -109 25 -15 26 -18 18 -61 -11 -53 -2 -368 13 -486 14 -106
56 -204 97 -228 69 -40 760 -73 1354 -64 366 5 440 13 589 57 160 48 215 146
160 289 -46 123 -111 186 -416 411 -230 170 -422 331 -413 348 39 73 91 191
95 218 9 54 -23 121 -84 182 l-54 52 15 54 c30 101 19 144 -68 264 -26 35 -30
64 -41 319 l-5 122 38 7 c161 28 302 58 329 71 21 10 36 26 43 49 12 34 12 34
75 34 61 0 224 29 275 48 39 15 68 53 79 104 14 60 3 219 -54 818 -82 852
-127 1260 -190 1717 l-35 253 79 277 c74 261 118 435 256 1003 31 129 74 291
95 360 58 187 62 212 61 380 -2 416 -51 1097 -116 1600 -48 369 -161 984 -210
1138 -35 111 -99 234 -139 270 -95 83 -293 183 -709 356 -153 64 -336 143
-406 176 -71 34 -141 60 -159 60 l-31 0 2 143 c2 135 1 144 -23 186 -14 25
-46 58 -74 77 l-49 33 96 44 c196 92 393 223 500 332 97 99 151 240 178 465
l12 98 49 23 c26 12 67 41 91 64 32 32 52 43 84 47 58 8 118 39 179 92 70 61
107 123 166 273 27 70 71 163 97 207 69 114 191 344 207 390 21 57 17 130 -11
223 -25 82 -26 83 -7 120 35 70 52 137 61 248 6 62 18 134 30 165 48 135 53
329 11 465 -99 320 -411 611 -839 785 -65 27 -135 52 -155 55 -20 4 -38 10
-40 14 -2 3 2 40 9 81 28 156 12 237 -60 297 -64 54 -213 153 -276 183 -59 29
-71 31 -161 29 l-97 -3 -78 56 c-100 72 -176 98 -286 98 l-83 0 -55 54 c-81
77 -144 100 -279 100 -88 0 -129 -6 -255 -38 -82 -20 -164 -37 -180 -38 -17 0
-72 18 -122 41 -78 35 -100 41 -159 41 -41 -1 -90 -8 -119 -19z m188 -122 c38
-20 40 -23 23 -33 -227 -134 -555 -401 -744 -605 -287 -311 -658 -772 -864
-1075 l-68 -100 0 55 c0 82 18 212 45 325 48 202 92 302 183 415 171 212 656
626 1002 854 172 114 219 140 300 166 71 23 73 23 123 -2z m1615 -291 c7 -13
19 -32 27 -44 15 -20 9 -26 -172 -165 -103 -79 -221 -169 -263 -199 -41 -30
-79 -58 -85 -63 -51 -41 -802 -595 -1019 -751 -394 -284 -527 -390 -871 -696
-253 -224 -286 -253 -265 -225 37 47 210 248 284 329 44 49 88 96 96 106 8 9
49 55 91 101 42 46 120 134 174 194 442 496 889 897 1290 1157 126 82 293 156
600 265 54 20 100 16 113 -9z m-1221 -125 c-68 -62 -291 -286 -342 -343 -195
-220 -315 -375 -460 -595 -98 -150 -215 -361 -215 -390 0 -10 -19 -41 -43 -69
-96 -113 -320 -427 -472 -660 -68 -104 -124 -176 -183 -235 -97 -98 -195 -221
-241 -301 l-31 -55 0 65 c0 36 11 118 25 183 31 147 31 196 0 294 -50 160 -56
201 -40 273 19 81 134 429 151 453 6 10 74 84 150 165 512 541 797 768 1324
1058 96 52 405 202 422 203 4 1 -16 -20 -45 -46z m1940 -628 c360 -208 568
-474 589 -755 4 -41 2 -90 -2 -108 l-9 -33 -45 62 c-64 88 -241 266 -330 332
-88 65 -442 280 -499 303 l-39 15 117 119 c64 65 117 119 119 119 2 1 46 -24
99 -54z m-479 -389 c264 -175 323 -245 491 -585 48 -97 116 -225 151 -286 159
-273 211 -383 265 -552 l23 -72 -45 -60 c-25 -34 -48 -61 -52 -61 -4 0 -30 46
-58 103 -62 121 -178 298 -287 435 -142 178 -416 437 -587 553 -32 21 -67 55
-80 76 -13 21 -65 96 -117 168 -52 71 -90 131 -85 132 18 6 267 164 283 179
20 20 24 19 98 -30z m-478 -276 c17 -22 28 -40 23 -40 -4 1 -33 14 -63 30 -54
28 -54 29 -30 39 36 14 35 15 70 -29z m-673 -215 c96 -40 256 -122 373 -193
249 -150 639 -442 801 -599 l120 -117 -5 -50 c-3 -28 -8 -150 -11 -271 -3
-121 -8 -233 -10 -250 -2 -16 -7 -86 -10 -155 -15 -343 -16 -350 -55 -350 -43
0 -46 -18 -10 -55 29 -30 31 -37 25 -73 -6 -38 -8 -40 -33 -32 -55 17 -90 19
-108 5 -17 -12 -16 -16 26 -57 25 -25 53 -49 63 -54 16 -9 16 -13 2 -55 l-16
-45 -67 23 c-76 26 -103 28 -120 11 -23 -23 -12 -47 48 -101 53 -47 58 -56 45
-67 -13 -10 -21 -11 -43 0 -62 28 -163 61 -172 55 -21 -13 -8 -41 43 -93 l52
-53 -25 -19 c-28 -22 -46 -25 -55 -10 -10 16 -143 120 -154 120 -21 0 -22 -22
-3 -53 11 -17 32 -58 46 -90 34 -78 17 -82 -68 -18 -100 76 -129 67 -94 -30
30 -83 31 -86 13 -93 -11 -4 -25 4 -42 25 -31 36 -119 89 -150 89 -33 0 -30
-39 8 -111 34 -64 34 -63 4 -73 -15 -4 -26 3 -44 29 -31 46 -107 115 -126 115
-26 0 -27 -24 -7 -110 l20 -81 -25 -10 c-36 -13 -36 -13 -61 44 -29 67 -77
127 -103 127 -17 0 -19 -7 -19 -57 1 -32 5 -78 10 -103 8 -44 2 -59 -25 -60
-6 0 -18 30 -28 67 -20 76 -55 139 -69 125 -16 -16 -47 -154 -41 -184 4 -23 2
-28 -13 -28 -17 0 -19 9 -19 103 -1 138 -11 197 -34 197 -14 0 -25 -28 -57
-145 -21 -80 -43 -145 -47 -145 -5 0 -6 13 -2 30 9 39 9 155 1 169 -16 25 -37
7 -78 -66 -25 -43 -48 -86 -51 -95 -4 -10 -11 -18 -16 -18 -6 0 -4 16 4 40 8
22 15 72 17 112 3 69 2 73 -19 76 -15 2 -23 -2 -23 -11 0 -8 -20 -41 -44 -74
-24 -32 -48 -68 -55 -80 -22 -43 -30 -23 -9 23 11 26 22 72 25 104 8 87 -10
85 -101 -11 -41 -43 -76 -79 -79 -79 -2 0 7 22 20 49 13 28 26 77 30 110 5 56
4 61 -13 60 -10 0 -44 -29 -74 -64 -30 -35 -56 -63 -57 -62 -1 2 4 21 12 42
17 47 19 101 5 110 -15 9 -64 -33 -110 -94 -46 -61 -47 -60 -20 9 11 28 24 69
29 92 17 75 -6 88 -65 36 -36 -32 -37 -32 -30 -8 4 14 19 47 32 74 21 41 23
52 12 63 -12 11 -21 7 -54 -24 -41 -38 -124 -136 -142 -169 -5 -9 -14 -14 -20
-10 -6 3 9 42 39 98 27 51 49 96 49 100 0 38 -87 -11 -164 -91 -26 -27 -56
-41 -56 -26 0 3 20 36 45 73 48 72 54 92 30 112 -16 13 -53 -6 -138 -73 -35
-27 -40 -28 -54 -14 -14 14 -11 22 34 84 63 86 64 88 57 107 -10 26 -56 18
-114 -19 -30 -19 -58 -35 -61 -35 -19 -1 -16 46 5 74 82 109 70 183 -21 131
l-41 -23 -11 63 c-35 197 -53 396 -66 705 -6 151 -18 251 -35 309 -13 45 2 64
180 241 281 280 604 522 1062 800 l162 98 78 -29 c42 -15 117 -44 165 -64z
m-4665 -552 c51 -59 66 -192 50 -465 -7 -136 -8 -236 -2 -302 9 -92 12 -102
47 -147 20 -27 85 -91 142 -142 58 -50 145 -129 194 -175 356 -334 826 -610
1302 -762 88 -29 167 -55 175 -59 17 -9 47 -57 40 -64 -15 -15 -301 53 -459
108 -440 153 -1006 501 -1199 737 -33 41 -72 82 -86 91 -26 17 -129 139 -157
186 -30 49 -57 36 -144 -69 -216 -262 -479 -468 -807 -632 -139 -69 -299 -140
-305 -135 -1 2 3 42 9 89 11 84 12 86 41 92 59 12 521 303 714 449 141 107
277 231 312 283 16 25 35 69 40 97 6 29 15 210 21 402 13 410 15 435 40 435 9
0 24 -8 32 -17z m-533 -97 c-2 -2 -45 -37 -94 -78 -195 -161 -404 -447 -510
-698 -75 -175 -151 -449 -195 -695 -12 -66 -44 -279 -71 -475 -180 -1287 -178
-1263 -189 -2505 -7 -801 -12 -994 -34 -1395 -61 -1111 -73 -1480 -86 -2775
-6 -517 -15 -1025 -20 -1130 -17 -348 -39 -838 -46 -1016 l-6 -176 -162 -6
c-88 -4 -180 -11 -203 -16 -30 -6 -43 -5 -43 3 0 6 7 97 15 201 8 105 23 334
35 510 11 176 29 451 40 610 27 399 66 1103 90 1635 11 245 24 531 30 635 49
932 66 1227 85 1540 3 44 12 188 20 320 9 132 17 274 20 315 3 41 10 145 15
230 6 85 12 187 15 225 3 39 16 243 30 455 14 212 27 408 30 435 2 28 11 142
20 255 64 843 119 1314 240 2063 93 579 159 808 300 1042 131 219 191 281 345
358 111 55 351 153 329 133z m6697 -506 l57 -71 -12 -87 c-6 -48 -18 -145 -27
-217 -18 -146 -40 -215 -84 -265 l-31 -35 5 65 c3 36 8 117 11 180 4 63 8 135
10 160 2 25 4 111 4 193 1 81 3 147 6 147 2 0 30 -32 61 -70z m-3271 -160 c15
-361 18 -411 31 -509 4 -31 3 -33 -13 -20 -93 70 -127 152 -153 365 l-11 91
67 107 c36 59 68 106 70 104 1 -2 5 -64 9 -138z m-4349 -6 c-101 -240 -199
-755 -305 -1599 -83 -659 -144 -1368 -206 -2380 -3 -49 -8 -115 -10 -145 -2
-30 -7 -102 -10 -160 -3 -58 -8 -130 -10 -160 -2 -30 -7 -102 -10 -160 -3 -58
-8 -130 -10 -160 -4 -48 -10 -150 -30 -505 -3 -49 -21 -362 -40 -695 -19 -333
-60 -1062 -90 -1620 -31 -558 -69 -1213 -85 -1455 -16 -242 -35 -540 -41 -662
l-12 -222 -46 -6 c-79 -11 -153 -35 -220 -71 l-64 -35 5 1121 c5 961 3 1122
-9 1127 -22 9 -25 -1 -34 -99 -40 -463 -69 -823 -74 -923 -4 -66 -9 -136 -12
-155 -10 -65 -15 -1454 -6 -1528 7 -56 7 -72 -3 -68 -6 2 -72 12 -145 22 -222
28 -492 9 -589 -41 -17 -9 -30 -12 -30 -7 0 16 51 398 76 572 39 274 107 689
205 1260 95 552 160 952 209 1285 168 1145 365 2328 600 3620 139 761 143 779
115 445 -8 -96 -24 -294 -35 -440 -38 -489 -90 -1113 -120 -1425 -36 -380 -35
-364 -60 -675 -11 -140 -24 -298 -29 -350 -10 -105 -7 -120 20 -120 13 0 20
10 24 33 3 17 30 172 60 342 126 713 196 1306 280 2370 63 809 104 1234 155
1635 11 85 33 265 50 400 82 668 182 1054 366 1409 57 111 191 317 200 308 2
-2 -11 -39 -30 -83z m1471 -386 c11 -18 59 -79 106 -136 107 -126 130 -169
131 -244 1 -63 -17 -97 -73 -135 -100 -68 -308 -48 -385 38 -30 33 -36 46 -36
86 0 55 26 105 127 244 37 52 77 114 87 137 10 23 20 42 22 42 1 0 11 -15 21
-32z m-399 -447 c33 -160 185 -262 392 -263 47 0 106 5 130 12 144 39 244 139
258 257 2 24 6 43 8 43 2 0 68 -44 146 -99 269 -186 605 -372 846 -469 68 -28
125 -52 128 -55 3 -2 -9 -74 -25 -158 -17 -85 -51 -271 -77 -414 -117 -661
-199 -925 -346 -1120 -186 -246 -580 -534 -842 -614 -330 -101 -790 73 -1194
454 -225 212 -286 353 -373 874 -32 188 -32 197 -20 304 12 115 94 697 112
802 l10 60 107 39 c117 44 275 119 404 192 97 56 281 178 298 199 20 24 25 18
38 -44z m4495 -997 c126 -86 197 -115 297 -121 93 -6 188 13 311 62 71 29 233
102 270 122 3 2 5 -27 5 -64 l-1 -68 -90 -78 c-139 -121 -242 -196 -329 -239
-44 -21 -86 -38 -94 -38 -27 0 -196 95 -348 195 l-155 102 -2 111 c-2 102 -1
110 15 99 9 -7 63 -44 121 -83z m-2252 65 c133 -45 170 -248 90 -488 -17 -50
-42 -113 -55 -140 -62 -122 -266 -330 -266 -271 0 19 -84 101 -123 121 -38 20
-38 21 -32 62 4 23 13 56 21 73 17 36 176 235 282 351 82 92 87 113 24 113
-52 0 -131 -42 -197 -104 -50 -47 -55 -50 -51 -27 3 14 10 55 16 91 6 36 13
80 16 97 6 39 69 87 149 115 59 21 81 22 126 7z m1976 -46 c6 -32 9 -59 8 -61
-2 -2 -12 1 -22 6 -26 13 -43 4 -43 -23 0 -59 131 -180 361 -333 80 -53 153
-102 163 -107 17 -10 13 -17 -41 -70 -79 -80 -99 -146 -89 -298 3 -56 10 -117
14 -136 6 -29 3 -38 -25 -68 -49 -51 -60 -109 -73 -378 -13 -288 -29 -1130
-30 -1635 0 -201 -5 -646 -11 -990 -22 -1417 -18 -2722 9 -2865 5 -26 14 -41
25 -43 42 -8 43 5 50 335 4 175 14 487 22 693 35 906 52 1660 65 3055 6 567
15 1183 20 1370 9 305 13 347 32 405 12 36 27 73 34 84 9 13 11 53 7 145 -5
120 -4 128 19 171 29 53 158 146 249 179 158 58 509 322 580 437 25 41 19 80
-15 95 -21 10 -22 14 -12 50 9 36 13 39 36 34 80 -20 100 -64 100 -219 0 -86
-5 -130 -20 -179 -19 -60 -28 -72 -118 -158 -162 -154 -325 -268 -587 -415
-66 -37 -68 -39 -40 -42 69 -7 332 101 513 210 248 149 337 231 363 331 6 26
14 47 16 47 3 0 31 -16 63 -35 91 -55 266 -136 509 -235 340 -138 472 -204
613 -304 63 -45 79 -73 121 -216 91 -307 222 -1125 267 -1660 18 -222 20 -251
30 -515 6 -143 12 -280 15 -305 12 -120 15 -338 6 -450 -12 -145 -37 -249
-126 -520 -35 -107 -79 -249 -99 -315 -47 -161 -287 -1004 -322 -1132 -25 -91
-31 -102 -49 -98 -332 71 -534 132 -724 218 -127 58 -311 162 -311 177 0 5 36
121 79 257 44 136 107 340 141 453 80 268 123 399 177 544 50 132 54 162 39
332 l-9 101 57 42 c70 52 86 82 86 163 0 107 -93 749 -137 948 -14 63 -30 165
-35 225 l-10 110 77 225 c82 240 145 400 196 501 76 151 211 345 377 543 65
77 72 90 60 103 -13 13 -20 8 -58 -34 -68 -77 -292 -379 -362 -488 -119 -185
-232 -401 -308 -587 -13 -32 -26 -58 -29 -58 -3 0 -19 35 -36 77 -16 42 -35
78 -42 80 -18 6 -26 -130 -13 -247 6 -58 20 -168 30 -245 11 -77 26 -205 35
-285 9 -80 31 -264 49 -410 19 -146 40 -325 47 -398 l12 -133 -61 -57 c-71
-67 -77 -86 -70 -230 7 -133 -12 -217 -112 -497 -164 -458 -340 -1004 -340
-1057 0 -48 17 -96 47 -130 13 -14 10 -22 -31 -75 -25 -32 -75 -107 -110 -167
-74 -125 -91 -184 -83 -291 5 -71 55 -245 80 -279 12 -16 11 -30 -5 -95 -33
-141 -21 -260 35 -319 47 -51 95 -67 192 -66 76 1 107 7 200 38 71 23 142 40
200 45 303 30 531 179 604 398 21 65 46 300 38 368 l-5 45 52 -6 c69 -8 111
13 136 68 l18 41 6 -54 c3 -30 10 -117 16 -194 14 -178 30 -349 85 -870 77
-735 109 -1096 110 -1260 l0 -40 -120 -33 c-66 -18 -127 -34 -135 -35 -18 -3
-23 27 -55 350 -26 272 -38 318 -80 329 -34 9 -73 -10 -85 -40 -11 -30 3 -134
36 -276 39 -165 54 -258 54 -346 l0 -82 -87 -16 c-165 -30 -348 -55 -623 -86
-151 -17 -286 -32 -300 -35 -153 -29 -719 -45 -904 -25 -78 8 -96 14 -140 44
-109 76 -105 70 -115 181 -6 55 -12 141 -16 190 -3 50 -8 122 -10 160 -3 39
-10 142 -15 230 -34 517 -89 958 -125 994 -13 14 -17 13 -32 -2 -16 -16 -18
-42 -17 -278 2 -245 7 -449 20 -684 7 -145 24 -403 29 -455 18 -189 26 -302
22 -307 -11 -11 -237 -33 -402 -39 -203 -8 -297 1 -659 58 l-268 43 5 870 c3
479 10 974 16 1100 44 1007 128 4434 120 4895 -4 191 -5 196 -33 254 -39 80
-164 209 -197 204 -43 -6 -36 -47 27 -166 31 -59 70 -126 85 -149 35 -50 36
-89 14 -383 -20 -268 -43 -650 -51 -858 -6 -157 -9 -175 -26 -185 -25 -15
-158 -180 -242 -299 -80 -115 -113 -155 -120 -148 -2 3 -76 119 -163 258
l-158 253 3 103 3 103 67 -13 c37 -6 109 -15 160 -19 77 -6 96 -4 118 10 21
13 25 23 22 53 -4 54 -28 62 -210 65 l-155 2 -6 200 c-4 110 -7 238 -7 285 l0
85 98 195 c54 107 136 260 182 340 139 240 177 331 201 471 11 66 27 138 34
160 31 86 59 109 510 419 99 68 236 162 305 210 l125 87 18 -30 c49 -80 287
-312 432 -421 65 -49 105 -59 105 -27 0 27 -91 147 -254 335 -76 87 -145 170
-153 183 -13 20 -15 44 -9 146 8 157 25 238 51 248 11 4 43 8 71 8 l51 1 10
-57z m-2336 -929 c56 -117 61 -351 10 -452 -66 -129 -195 -97 -229 56 -9 39
-7 48 33 126 40 76 86 207 116 326 10 42 12 44 26 25 8 -11 28 -47 44 -81z
m408 -81 c-3 -87 -5 -544 -5 -1016 1 -577 -2 -853 -9 -841 -83 141 -215 247
-415 331 l-75 31 -6 224 c-6 199 -33 561 -44 596 -3 7 -15 12 -27 10 -17 -2
-25 -12 -30 -38 -6 -30 -23 -275 -44 -631 l-6 -106 -58 15 c-42 11 -62 23 -76
44 -10 16 -36 40 -56 55 -21 14 -38 30 -38 35 0 23 -86 98 -135 119 -59 24
-65 36 -65 135 0 79 -24 129 -71 151 -63 29 -54 47 79 148 64 50 170 143 235
207 l117 116 21 -41 c47 -94 124 -147 211 -147 123 1 227 90 263 228 20 74 30
272 17 340 l-9 52 61 30 c33 16 84 49 111 73 28 25 52 44 55 42 3 -2 2 -74 -1
-162z m-3309 20 c0 -8 14 -56 31 -107 22 -66 32 -117 36 -187 7 -109 -6 -161
-43 -186 -23 -14 -27 -15 -41 -1 -13 14 -14 47 -8 262 4 135 12 243 16 240 5
-3 9 -12 9 -21z m-913 -350 c-3 -10 -5 -4 -5 12 0 17 2 24 5 18 2 -7 2 -21 0
-30z m1094 -245 c-6 -51 -13 -163 -16 -248 -3 -85 -8 -208 -11 -272 -5 -97 -3
-118 8 -118 16 0 88 286 133 527 l27 143 72 -66 c39 -36 117 -100 174 -141
117 -87 125 -104 69 -158 -34 -33 -70 -122 -83 -203 -6 -38 -8 -40 -59 -51
-53 -12 -135 -70 -135 -95 0 -7 -19 -33 -42 -57 -24 -24 -47 -52 -53 -62 -9
-16 -13 -16 -54 5 -40 20 -49 20 -99 10 -31 -6 -73 -23 -94 -37 -20 -14 -40
-25 -43 -25 -3 0 -5 190 -5 423 l0 422 52 -3 c61 -4 108 21 143 75 11 17 21
29 23 28 2 -2 -1 -45 -7 -97z m721 -372 c154 -70 351 -122 494 -130 147 -8
331 37 506 125 43 22 80 39 83 39 3 0 5 -15 5 -34 0 -33 -3 -35 -92 -80 -155
-77 -214 -88 -488 -89 -212 -1 -244 1 -325 21 -94 24 -176 57 -224 92 -20 14
-30 31 -33 55 -2 19 -3 35 -2 35 1 0 35 -15 76 -34z m1222 -136 c24 -104 23
-111 -36 -167 -140 -130 -309 -203 -521 -223 -308 -29 -647 68 -839 240 l-52
47 24 71 24 70 26 -18 c33 -23 212 -104 275 -123 128 -40 226 -52 440 -52 241
0 334 14 451 69 81 38 132 80 159 130 10 19 22 33 26 30 4 -2 15 -35 23 -74z
m-1358 -306 c131 -102 306 -177 488 -209 114 -19 330 -19 433 0 216 41 407
146 486 265 17 27 39 50 47 50 26 0 80 -39 80 -57 0 -54 -119 -154 -198 -167
-53 -8 -65 -21 -98 -108 -32 -86 -81 -140 -141 -158 -39 -12 -49 -11 -129 19
-47 17 -96 31 -108 31 -13 0 -49 -19 -80 -41 -134 -96 -239 -82 -353 47 l-57
65 -127 -3 c-116 -3 -130 -1 -156 18 -33 24 -49 53 -63 111 -13 53 -39 68
-157 90 -93 17 -137 45 -148 93 -5 20 0 28 22 42 15 9 39 28 52 42 l24 25 59
-52 c32 -29 88 -75 124 -103z m-302 -82 c47 -50 135 -98 196 -108 33 -5 44
-13 57 -38 31 -62 83 -115 141 -143 48 -24 70 -28 145 -29 86 -1 89 -2 125
-36 62 -58 106 -87 167 -108 105 -36 201 -19 293 50 50 38 51 38 95 25 205
-61 368 9 442 191 22 54 28 61 72 79 77 31 137 70 176 114 36 40 37 40 51 20
22 -32 6 -60 -55 -96 -87 -51 -118 -80 -125 -121 -11 -69 -29 -106 -74 -155
-37 -39 -59 -53 -122 -76 -70 -24 -83 -33 -125 -86 -73 -89 -153 -106 -263
-56 -25 11 -51 21 -58 21 -7 0 -35 -22 -63 -50 -84 -84 -170 -92 -241 -20 -21
21 -41 52 -44 69 -11 52 -24 56 -173 56 -123 0 -141 2 -184 24 -27 13 -52 33
-57 45 -4 11 -14 36 -20 54 -15 39 -55 62 -108 62 -67 0 -145 19 -169 42 -19
17 -23 32 -23 77 0 65 -12 83 -82 130 -67 44 -83 84 -57 133 11 20 11 20 26
-4 9 -12 34 -43 57 -66z m-262 -106 c57 -70 121 -170 287 -456 110 -188 139
-235 296 -485 48 -77 180 -291 293 -475 113 -184 298 -481 412 -660 214 -337
286 -457 277 -466 -3 -3 -31 -9 -63 -14 -33 -4 -79 -13 -103 -20 -23 -6 -44
-10 -45 -8 -1 2 -11 26 -21 53 -67 185 -289 561 -738 1253 -117 180 -289 451
-381 602 -200 326 -336 535 -400 613 l-47 57 73 35 c40 19 80 35 90 35 10 0
41 -29 70 -64z m2508 -55 c0 -13 -190 -372 -255 -481 -98 -165 -270 -418 -370
-543 -111 -138 -289 -318 -386 -391 -109 -81 -220 -136 -274 -136 -43 0 -43 0
-94 80 l-51 80 64 -40 c119 -75 155 -59 383 166 219 217 427 487 608 789 80
134 200 362 249 473 l27 63 50 -27 c27 -15 49 -30 49 -33z m-304 -70 c-105
-207 -596 -950 -734 -1109 -48 -56 -148 -142 -164 -142 -3 0 -9 17 -13 38 -11
61 -61 169 -116 253 -28 44 -55 79 -59 79 -15 0 -18 -13 -9 -37 9 -25 51 -265
46 -269 -2 -2 -224 133 -253 153 -11 8 -489 774 -517 829 l-16 31 52 -14 c28
-7 66 -13 84 -13 25 0 36 -6 47 -27 54 -103 223 -183 357 -169 57 5 59 5 73
-22 20 -38 100 -110 141 -128 79 -33 194 -9 268 57 l45 39 43 -16 c25 -10 74
-17 114 -17 57 0 81 5 125 27 67 34 85 50 116 101 18 32 35 45 81 62 136 53
217 149 247 293 4 19 52 64 74 69 1 1 -13 -30 -32 -68z m607 -73 c102 -70 197
-202 400 -558 55 -96 160 -270 234 -387 74 -116 136 -215 137 -220 0 -4 -28
-13 -64 -20 -155 -29 -234 -7 -335 93 -82 80 -129 153 -214 329 -38 77 -80
154 -95 171 -14 18 -26 39 -26 47 0 8 -9 26 -20 40 -17 21 -19 34 -14 86 6 56
5 61 -12 61 -25 -1 -115 -116 -160 -205 -66 -134 -59 -218 44 -475 70 -177 92
-251 92 -316 0 -37 -6 -46 -53 -91 -57 -54 -171 -114 -263 -138 -225 -58 -590
-68 -764 -19 -65 18 -256 123 -243 133 4 4 42 30 83 57 85 55 288 248 394 374
195 233 422 573 544 817 52 103 118 260 127 300 l6 33 72 -37 c40 -19 98 -53
130 -75z m-2856 -308 c61 -96 191 -305 288 -465 98 -159 216 -348 263 -420
267 -409 691 -1126 716 -1212 11 -35 -21 -45 -100 -33 -74 12 -109 7 -209 -27
-122 -42 -317 -41 -595 3 -164 27 -209 42 -258 85 -78 68 -178 104 -345 124
l-59 7 7 181 c10 292 34 884 40 982 11 180 15 262 20 390 3 72 8 150 10 175 3
25 7 120 11 213 3 92 8 182 10 200 1 17 3 48 3 67 l1 35 43 -65 c24 -36 93
-144 154 -240z m3997 -442 c-7 -163 -33 -1012 -44 -1488 -6 -239 -17 -637 -25
-885 -8 -247 -20 -619 -27 -825 -17 -533 -17 -2068 0 -2097 27 -48 197 -109
453 -162 l134 -27 3 -45 c1 -24 14 -159 28 -299 15 -140 27 -298 28 -350 l1
-95 -42 -71 c-64 -105 -56 -160 37 -258 30 -32 47 -57 41 -61 -19 -11 -13 -73
9 -88 18 -13 3 -22 -192 -116 -116 -56 -213 -100 -215 -97 -2 2 -47 190 -99
417 -53 228 -185 770 -294 1204 l-198 790 -5 440 c-4 331 -12 529 -31 800 -40
551 -81 1041 -91 1075 -3 10 21 29 78 60 97 53 218 168 265 250 72 128 110
322 98 500 -8 116 -40 314 -66 407 l-19 68 44 45 c61 63 85 114 85 177 0 45
-9 70 -54 156 -29 56 -83 151 -119 211 l-66 109 98 121 c53 67 117 147 140
179 24 31 45 57 47 57 1 0 1 -46 -2 -102z m-216 -673 c12 -25 22 -52 22 -60 0
-24 -162 -178 -245 -234 -162 -107 -385 -198 -577 -236 -48 -10 -93 -15 -101
-12 -8 3 -18 23 -21 44 -4 21 -9 45 -12 54 -3 13 6 17 43 22 66 8 133 31 233
81 183 92 503 286 590 357 19 16 37 29 40 29 3 0 16 -20 28 -45z m-47 -527
c19 -205 17 -423 -4 -511 -33 -135 -95 -218 -224 -300 -213 -135 -498 -195
-1023 -212 -237 -8 -260 -11 -370 -55 -147 -58 -147 -58 -154 -7 -19 124 -213
324 -449 462 l-68 40 33 7 c18 4 71 10 118 13 96 8 142 -1 336 -61 108 -33
129 -37 229 -36 186 1 311 36 800 226 138 54 280 108 318 120 105 34 132 71
87 116 -29 29 -114 26 -236 -9 -54 -15 -107 -32 -116 -36 -13 -5 -18 -3 -18 8
0 8 -3 28 -6 44 -6 30 -6 30 52 37 137 16 403 129 579 245 50 33 93 60 96 60
3 1 12 -68 20 -151z m-926 -156 c14 -7 32 -12 40 -12 11 0 15 -12 15 -42 0
-24 3 -52 6 -63 4 -18 -11 -27 -136 -78 -78 -32 -145 -55 -149 -52 -5 2 -11
23 -15 45 -3 22 -13 54 -22 73 -18 37 -20 33 114 172 34 36 62 71 62 78 0 7
14 -15 30 -49 19 -38 39 -65 55 -72z m-375 -222 l16 -81 -51 -14 c-167 -49
-276 -48 -455 4 -74 21 -147 41 -162 45 -23 5 -28 12 -28 39 l0 32 191 -3
c195 -4 339 11 427 43 20 7 39 14 42 14 3 1 12 -35 20 -79z m-2669 -63 c-1 -4
-17 -37 -36 -75 l-36 -67 5 55 c3 30 6 69 6 87 0 32 0 32 31 19 17 -7 30 -16
30 -19z m210 -69 l76 -31 -52 -86 c-65 -109 -126 -248 -210 -476 -36 -99 -72
-196 -80 -215 -13 -32 -14 -16 -14 173 l-1 208 44 112 c25 62 63 167 87 235
34 100 45 122 58 117 9 -3 50 -20 92 -37z m394 -154 c167 -35 275 -31 450 17
213 58 353 43 546 -58 105 -55 193 -120 285 -210 78 -76 164 -184 164 -206 0
-29 -14 -25 -60 16 -26 23 -73 57 -103 75 -76 46 -349 163 -364 157 -36 -13
-7 -44 187 -195 52 -40 128 -102 168 -138 59 -53 72 -69 72 -94 l0 -30 -40 36
c-81 73 -240 135 -417 161 -90 13 -109 14 -120 2 -22 -22 -5 -44 49 -62 110
-36 305 -143 383 -210 l30 -26 -53 6 c-29 3 -89 17 -135 30 -189 57 -245 69
-262 55 -25 -21 -18 -48 18 -66 17 -10 73 -34 122 -55 73 -31 84 -39 60 -40
-90 -4 -165 16 -279 73 -75 38 -89 41 -201 50 -241 18 -312 49 -455 197 -116
120 -100 112 -305 157 -66 15 -122 28 -124 30 -5 5 87 289 114 350 l23 52 59
-23 c32 -13 116 -36 188 -51z m2979 -526 c3 -68 8 -186 11 -263 6 -153 32
-590 40 -670 11 -112 36 -508 32 -511 -2 -3 -19 67 -36 153 -138 673 -241
1048 -345 1253 l-43 86 113 23 c62 12 132 29 156 36 24 8 48 14 54 14 8 1 14
-39 18 -121z m-3273 23 c75 -21 153 -47 174 -57 21 -10 83 -60 138 -111 143
-134 234 -174 432 -191 l80 -7 -115 -51 c-63 -29 -176 -74 -250 -102 -148 -55
-816 -272 -838 -272 -11 0 -13 16 -10 78 4 59 12 95 37 152 18 41 70 188 117
325 98 289 93 275 96 275 2 0 64 -18 139 -39z m6607 -80 c43 -30 268 -135 375
-175 111 -41 301 -98 396 -117 55 -12 62 -16 56 -34 -3 -11 -12 -81 -21 -155
-26 -232 -58 -316 -153 -410 -62 -61 -179 -124 -247 -134 -24 -3 -65 0 -98 9
-82 22 -106 19 -214 -22 -115 -43 -208 -54 -247 -29 -23 15 -25 22 -25 94 0
83 25 249 65 439 22 103 23 119 10 132 -13 13 -17 13 -33 -2 -10 -9 -31 -44
-47 -77 -16 -33 -32 -60 -36 -60 -4 0 -10 28 -14 63 -11 97 10 155 130 363 29
50 56 100 59 112 9 27 11 27 44 3z m-3664 -343 c52 -176 66 -228 100 -368 19
-80 60 -269 91 -420 93 -454 165 -760 410 -1740 225 -899 295 -1186 295 -1208
0 -18 -39 -21 -44 -3 -3 9 -32 115 -66 236 -34 121 -74 263 -90 315 -15 52
-47 160 -70 240 -23 80 -65 219 -92 310 -28 91 -65 217 -83 280 -19 63 -73
243 -120 400 -47 157 -97 321 -110 365 -13 44 -71 226 -129 405 -109 341 -150
477 -161 547 -7 46 -22 63 -55 66 -13 1 -26 11 -31 24 -5 13 -13 23 -18 23
-16 0 -23 -80 -21 -235 5 -583 206 -1730 535 -3053 34 -139 60 -254 56 -256
-34 -21 -510 -181 -517 -173 -9 10 -95 617 -165 1162 -105 820 -143 1056 -278
1700 -69 329 -100 479 -106 517 -6 38 -35 68 -66 68 -11 0 -19 11 -23 33 -4
25 -47 463 -59 602 -2 29 1 31 75 57 140 49 644 184 700 187 13 1 23 -19 42
-81z m-1855 8 c58 -19 114 -36 124 -38 14 -2 2 -15 -45 -49 -254 -184 -687
-363 -1233 -509 -122 -33 -240 -66 -264 -75 -24 -8 -47 -15 -52 -15 -5 0 -9
38 -9 85 0 82 1 85 23 85 111 0 880 254 1077 356 95 49 213 134 237 170 8 13
20 24 26 24 5 0 58 -15 116 -34z m941 -646 c22 -245 50 -528 61 -630 13 -125
23 -314 29 -585 32 -1362 44 -1614 115 -2325 15 -140 27 -261 28 -269 2 -18
-60 -35 -208 -57 -129 -20 -372 -23 -720 -10 -197 7 -284 6 -485 -9 -297 -21
-520 -17 -818 16 -179 20 -211 26 -207 39 2 8 22 168 45 355 78 653 106 862
256 1910 52 363 111 776 131 919 21 142 42 260 48 261 53 16 312 118 393 157
57 26 107 48 111 48 5 0 7 -26 5 -57 -10 -156 -24 -614 -29 -913 -3 -184 -12
-411 -20 -505 -21 -257 -24 -398 -12 -530 10 -95 15 -120 27 -120 9 0 16 11
18 26 2 21 8 26 33 26 17 0 39 9 51 21 18 18 23 42 35 184 19 233 36 362 99
718 117 665 173 915 276 1235 l62 190 7 -50 c4 -27 8 -77 8 -110 1 -33 10
-121 21 -195 11 -74 24 -227 30 -340 13 -255 40 -419 91 -551 25 -64 111 -57
128 10 13 50 38 267 51 441 6 80 20 208 31 285 38 271 49 392 49 577 l0 188
53 26 c53 28 161 74 164 70 1 0 20 -201 43 -446z m-1890 -442 c0 -7 -12 -80
-26 -163 -18 -102 -32 -156 -44 -170 -10 -11 -23 -47 -30 -80 -15 -75 -43
-182 -80 -305 -36 -118 -61 -202 -161 -555 -133 -465 -156 -545 -189 -670 -18
-66 -38 -140 -46 -165 -56 -186 -178 -752 -220 -1020 -10 -63 -21 -119 -25
-124 -9 -10 -137 13 -281 51 -77 21 -98 30 -98 44 0 9 43 277 95 596 89 541
144 898 160 1038 7 58 9 61 53 90 65 42 93 94 90 167 -3 65 0 68 87 68 115 1
122 20 135 380 14 423 33 799 40 810 4 7 24 6 61 -2 71 -17 304 -14 394 5 39
8 73 15 78 16 4 0 7 -5 7 -11z m-1292 -974 l-3 -137 -95 -26 c-52 -15 -121
-39 -154 -54 -32 -15 -59 -27 -60 -27 0 0 0 64 1 142 l2 142 37 19 c30 16 237
75 267 77 4 0 6 -61 5 -136z m-673 -438 c114 -23 257 -55 261 -59 3 -2 15 -48
28 -101 l23 -96 -31 0 c-17 0 -94 7 -171 15 -336 36 -575 -4 -575 -96 0 -48
86 -82 97 -38 4 15 11 19 32 15 14 -3 69 -8 121 -11 52 -4 122 -11 155 -16 75
-12 233 -60 309 -94 l58 -26 -6 -47 c-12 -81 -13 -83 -54 -77 -20 3 -106 14
-189 25 -286 38 -450 96 -545 191 -75 75 -92 133 -77 264 5 49 15 93 22 97 16
10 160 48 217 58 74 13 250 10 325 -4z m919 -158 c-30 -129 -32 -134 -66 -149
-26 -11 -37 -26 -54 -74 -12 -33 -52 -136 -89 -230 -117 -298 -270 -707 -295
-790 -13 -44 -25 -81 -26 -83 -1 -2 -20 5 -43 14 -30 12 -40 21 -37 33 33 111
196 1105 196 1194 0 21 6 23 89 35 86 11 218 53 291 91 19 11 38 19 42 20 3 1
0 -27 -8 -61z m8091 -440 c8 -67 22 -86 108 -151 20 -15 37 -35 37 -43 0 -8
-13 -41 -30 -74 -16 -33 -30 -75 -30 -93 0 -37 33 -89 94 -146 20 -19 36 -39
36 -45 0 -19 -42 -96 -52 -96 -6 0 -50 16 -98 35 -186 74 -369 98 -514 66
-125 -27 -265 -101 -391 -206 -43 -36 -80 -65 -83 -65 -8 0 10 94 23 120 7 14
40 47 72 73 32 26 96 83 143 127 47 43 99 84 115 91 73 27 94 40 111 68 22 38
58 44 149 27 222 -44 202 -43 230 -16 54 51 18 106 -90 139 -107 33 -197 45
-253 34 -42 -8 -52 -7 -71 8 -34 28 -83 33 -138 16 -26 -9 -82 -21 -123 -27
-41 -6 -108 -20 -149 -31 -40 -11 -75 -18 -76 -17 -2 2 -6 21 -9 44 l-7 40
117 12 c184 20 504 77 679 122 88 23 161 43 164 46 17 17 30 -3 36 -58z
m-2477 16 c215 -72 616 -144 808 -144 l50 0 17 -70 c9 -38 27 -87 40 -108 55
-86 77 -141 77 -191 0 -76 -7 -85 -38 -54 -43 43 -140 81 -302 118 -85 19
-178 42 -206 49 -100 27 -234 40 -293 27 -105 -22 -143 -71 -116 -151 19 -58
79 -118 165 -163 94 -50 162 -71 365 -114 160 -33 183 -40 203 -65 44 -52 87
-71 152 -66 l58 4 -28 -78 c-16 -43 -38 -91 -50 -107 l-21 -30 -82 36 c-336
146 -618 250 -780 289 l-77 18 6 37 c8 49 -11 79 -98 152 l-68 58 62 70 c35
38 68 80 75 92 15 27 17 124 3 198 -5 30 -13 94 -18 142 -7 74 -6 87 6 82 8
-3 49 -17 90 -31z m2430 -759 c79 -27 151 -55 160 -62 16 -13 15 -14 -3 -9
-208 54 -435 8 -572 -117 -62 -57 -99 -125 -109 -198 -6 -42 -9 -48 -36 -53
-40 -8 -259 -8 -326 0 -57 7 -55 5 -66 90 l-6 41 113 86 c279 211 436 281 617
273 69 -3 112 -12 228 -51z m-3249 -92 c85 -342 94 -393 80 -419 -28 -53 -213
-149 -309 -161 l-36 -5 -48 259 c-26 142 -50 269 -53 282 -6 23 -4 24 32 18
52 -9 161 8 243 37 37 13 70 24 74 25 4 0 11 -16 17 -36z m942 -142 c90 -31
575 -234 587 -245 5 -6 -258 -37 -354 -43 -55 -3 -125 -3 -156 1 -55 7 -57 9
-69 44 -31 96 -94 179 -162 214 l-40 20 29 24 c16 13 34 23 40 24 7 0 63 -18
125 -39z m-6315 -43 c54 -29 137 -52 222 -63 28 -4 52 -10 52 -13 -1 -21 -58
-343 -62 -347 -2 -2 -38 5 -79 16 -130 37 -241 109 -255 166 -6 20 8 88 47
236 6 21 13 37 17 35 4 -2 30 -15 58 -30z m4899 -120 c2 -13 23 -120 45 -238
22 -118 48 -252 57 -297 17 -83 17 -83 -6 -106 -35 -38 -126 -78 -222 -97
-151 -31 -219 -33 -416 -11 -100 12 -197 21 -215 21 l-34 0 -23 243 c-12 133
-25 253 -28 267 l-5 25 86 -4 c57 -2 112 3 163 14 104 23 418 129 507 170 86
41 84 40 91 13z m-4358 -194 c124 -47 397 -94 541 -94 49 0 52 -1 48 -22 -3
-13 -15 -104 -27 -203 -13 -99 -27 -183 -32 -186 -23 -15 -172 -32 -282 -31
-141 1 -269 29 -386 85 -99 47 -113 60 -100 85 6 11 29 114 52 230 l41 211 40
-26 c22 -13 70 -36 105 -49z m3382 -246 c7 -62 19 -157 27 -210 21 -142 23
-133 -48 -156 -112 -36 -160 -43 -348 -49 -263 -7 -581 25 -848 88 -109 25
-122 24 -228 -11 -197 -67 -337 -92 -524 -91 -219 0 -437 48 -635 138 -55 25
-101 46 -102 47 -2 2 36 284 42 313 l5 21 87 -24 c351 -97 644 -113 1173 -63
205 19 245 20 455 10 289 -14 439 -14 562 0 115 13 265 49 319 78 22 11 42 20
45 21 4 0 12 -51 18 -112z"/>
<path d="M13435 15683 c-79 -20 -195 -69 -217 -90 -38 -36 -38 -84 -2 -112 36
-28 50 -27 146 16 74 33 92 37 168 37 80 1 93 -3 217 -52 73 -30 137 -51 143
-47 22 14 7 41 -62 109 -102 99 -185 140 -293 143 -44 1 -89 -1 -100 -4z"/>
<path d="M11942 15648 c-72 -26 -147 -79 -211 -150 -68 -75 -47 -81 91 -28
156 59 228 63 352 21 50 -17 102 -31 116 -31 35 0 70 38 70 77 0 39 -27 61
-117 98 -97 39 -214 44 -301 13z"/>
<path d="M13515 15178 c-67 -37 -115 -122 -115 -206 0 -66 18 -110 59 -145 43
-36 87 -43 140 -21 111 44 154 222 79 327 -35 49 -116 71 -163 45z"/>
<path d="M12006 15129 c-122 -35 -151 -262 -42 -331 45 -28 117 -20 158 18 89
84 91 246 3 295 -39 22 -83 28 -119 18z"/>
<path d="M12621 14958 c-52 -135 -72 -224 -78 -349 -7 -135 4 -195 48 -264 53
-84 198 -147 254 -111 64 42 48 86 -45 132 -90 44 -105 64 -126 164 -15 76
-16 103 -5 250 15 217 15 260 -3 260 -7 0 -27 -35 -45 -82z"/>
<path d="M12431 14135 c-26 -23 -32 -24 -37 -11 -9 24 -32 19 -77 -16 -24 -19
-50 -31 -62 -30 -29 4 -76 -37 -105 -91 -27 -51 -22 -88 13 -104 39 -18 69 4
91 65 13 37 22 50 29 43 14 -14 60 -14 74 0 9 9 16 8 28 -5 23 -22 38 -20 74
10 25 21 34 23 52 14 11 -7 30 -10 40 -7 10 3 22 1 25 -5 17 -27 94 -23 94 5
0 5 11 -2 25 -17 13 -14 28 -26 34 -26 40 0 71 47 71 108 0 68 -41 83 -85 30
-15 -18 -24 -27 -21 -21 10 18 -12 53 -32 53 -10 0 -24 -6 -31 -12 -10 -11
-16 -9 -28 10 -19 27 -44 28 -68 2 -18 -20 -18 -20 -29 2 -16 32 -39 33 -75 3z"/>
<path d="M13074 14126 c-4 -11 -11 -12 -35 -3 -21 8 -32 8 -40 0 -8 -8 -18 -9
-36 0 -24 11 -33 6 -47 -28 -2 -5 -11 0 -21 13 -22 30 -43 28 -56 -5 -15 -39
-4 -94 22 -116 19 -15 24 -16 43 -4 18 12 24 12 44 -1 19 -13 25 -13 47 2 14
9 25 12 25 7 0 -19 41 -23 66 -6 24 16 27 16 47 -3 36 -32 56 -34 81 -9 18 18
27 20 49 13 20 -8 31 -6 45 7 18 17 20 16 47 -23 43 -63 105 -68 105 -10 0 62
-65 150 -112 150 -10 0 -21 -6 -24 -14 -4 -12 -15 -8 -52 15 -54 34 -88 37
-97 9 l-6 -20 -26 20 c-30 23 -61 26 -69 6z"/>
<path d="M13487 13993 c-26 -46 -8 -158 28 -175 35 -16 65 5 65 45 -1 61 -74
164 -93 130z"/>
<path d="M12057 13929 c-23 -14 -47 -69 -47 -108 0 -40 38 -68 70 -51 37 20
54 106 30 151 -12 21 -26 23 -53 8z"/>
<path d="M13217 13923 c-10 -3 -22 -15 -27 -28 -10 -26 -56 -39 -204 -57 -122
-15 -297 2 -441 43 -161 45 -179 46 -209 15 -30 -29 -34 -73 -10 -83 10 -3 31
-1 47 5 26 10 38 8 91 -17 122 -58 314 -80 523 -62 127 11 209 34 247 70 12
10 30 21 41 23 11 2 24 16 30 32 8 24 6 31 -14 47 -23 19 -38 21 -74 12z"/>
<path d="M13599 13760 c-14 -46 -1 -70 37 -70 36 0 51 38 30 79 -24 45 -52 41
-67 -9z"/>
<path d="M8182 13506 c-119 -129 -121 -278 -6 -355 84 -55 166 -50 223 14 55
63 54 134 -5 248 -60 118 -78 137 -128 137 -38 0 -48 -5 -84 -44z m118 -103
c31 -62 42 -189 16 -199 -54 -21 -102 38 -91 113 9 63 35 144 43 139 4 -2 19
-26 32 -53z"/>
<path d="M9001 13540 c-121 -26 -280 -158 -297 -248 -6 -31 -3 -39 20 -59 46
-39 70 -31 155 51 42 40 91 81 110 91 52 26 115 16 226 -39 139 -68 170 -59
119 34 -67 124 -208 196 -333 170z"/>
<path d="M7428 13496 c-94 -25 -172 -94 -219 -191 -53 -111 -35 -116 105 -31
59 36 123 68 142 72 58 11 113 -4 210 -56 104 -57 153 -64 178 -28 9 12 16 33
16 47 0 56 -152 153 -290 185 -76 18 -81 18 -142 2z"/>
<path d="M8948 12868 c-8 -7 -27 -31 -42 -53 -79 -120 32 -263 155 -200 84 44
94 195 17 249 -27 19 -108 21 -130 4z"/>
<path d="M7560 12853 c-50 -19 -90 -83 -90 -145 0 -111 120 -179 200 -112 43
37 60 75 60 136 0 55 -17 86 -55 106 -27 13 -96 22 -115 15z"/>
<path d="M8145 12668 c-123 -186 -105 -414 40 -495 94 -53 169 -36 163 36 -3
29 -10 39 -47 60 -85 50 -101 101 -101 317 0 82 -4 134 -10 134 -5 0 -25 -24
-45 -52z"/>
<path d="M8570 11965 c-7 -8 -10 -21 -7 -29 13 -34 -136 -118 -238 -135 -109
-17 -209 10 -331 90 -70 45 -121 52 -154 19 -36 -36 -15 -89 30 -77 15 4 34
-8 71 -44 158 -159 442 -150 629 18 39 35 60 47 79 45 17 -2 34 4 45 17 16 18
17 25 6 50 -22 54 -100 82 -130 46z"/>
<path d="M12760 12355 c-7 -8 -18 -15 -25 -15 -24 0 -55 -51 -55 -89 0 -47 21
-77 65 -91 29 -9 41 -8 78 8 78 34 85 118 16 177 -35 28 -61 32 -79 10z m53
-87 c15 -23 1 -48 -27 -48 -34 0 -41 16 -21 46 17 27 32 28 48 2z"/>
<path d="M14765 9186 c-90 -17 -226 -64 -379 -131 -66 -29 -129 -55 -138 -59
-19 -6 -25 -41 -9 -50 5 -3 85 10 177 28 203 41 345 63 478 75 91 8 102 11
123 35 29 34 29 48 -1 83 -22 26 -30 28 -103 30 -43 1 -109 -4 -148 -11z"/>
</g>
</svg>
