<?xml version="1.0" standalone="no"?>
<!DOCTYPE svg PUBLIC "-//W3C//DTD SVG 20010904//EN"
 "http://www.w3.org/TR/2001/REC-SVG-20010904/DTD/svg10.dtd">
<svg version="1.0" xmlns="http://www.w3.org/2000/svg"
 width="800.000000pt" height="800.000000pt" viewBox="0 0 800.000000 800.000000"
 preserveAspectRatio="xMidYMid meet">

<g transform="translate(0.000000,800.000000) scale(0.100000,-0.100000)"
fill="#000000" stroke="none">
<path d="M5440 7993 c-211 -11 -473 -83 -671 -183 -231 -118 -520 -332 -735
-545 -210 -208 -474 -553 -474 -619 0 -17 7 -14 43 21 26 25 85 61 154 94
l112 54 -31 -55 c-47 -85 -260 -380 -274 -380 -1 0 -22 28 -47 63 -348 485
-912 737 -1542 688 -221 -17 -434 -58 -628 -122 -101 -32 -335 -154 -432 -223
-390 -281 -707 -758 -839 -1266 -55 -211 -68 -324 -68 -570 0 -304 32 -557
109 -855 220 -859 696 -1475 1594 -2061 74 -48 346 -214 604 -369 259 -155
536 -325 618 -379 81 -53 152 -96 157 -96 22 0 7 42 -37 101 -83 113 -103 151
-103 191 0 21 2 38 3 38 2 0 33 -9 68 -21 215 -70 416 -253 534 -489 15 -30
34 -62 41 -71 33 -38 76 -186 95 -329 26 -202 40 -260 60 -260 12 0 28 68 39
158 6 51 19 99 39 142 l31 64 -4 158 c-4 183 9 152 -151 338 -367 426 -751
713 -1115 832 -91 30 -98 35 -170 108 -41 42 -124 120 -185 175 -203 182 -487
471 -409 415 11 -8 73 -54 136 -101 188 -142 392 -280 810 -548 400 -257 694
-457 845 -575 101 -80 186 -186 248 -308 54 -108 92 -150 232 -259 56 -44 120
-103 142 -132 56 -75 156 -278 190 -388 89 -287 105 -337 122 -370 43 -85 68
-68 76 50 11 149 -34 387 -112 596 -116 312 -359 700 -601 957 -24 26 -44 48
-44 50 0 2 38 -3 83 -13 46 -9 113 -20 148 -24 l64 -7 -49 58 c-27 33 -66 77
-87 99 -51 54 -63 88 -44 125 8 16 19 32 25 35 13 8 13 25 -1 25 -32 0 -81 37
-111 83 -41 65 -71 93 -129 122 -114 58 -142 107 -252 440 -115 347 -110 313
-76 500 28 156 64 286 100 356 22 44 80 97 117 105 228 55 308 81 347 115 49
44 54 83 21 179 -24 73 -25 80 -11 114 14 34 14 37 -4 53 -18 15 -18 19 -5 37
21 30 18 42 -21 77 -46 42 -45 70 5 148 63 97 58 110 -69 177 -83 44 -162 110
-197 165 l-23 38 20 46 c22 50 18 72 -7 37 -8 -12 -19 -22 -24 -22 -4 0 -9 36
-11 79 l-4 79 -53 56 c-40 42 -69 89 -116 189 -70 148 -105 195 -166 222 l-40
18 0 79 c0 71 -2 81 -26 105 -23 23 -31 25 -77 19 -149 -18 -162 -18 -181 -3
-26 19 -14 47 21 48 27 0 28 1 5 11 -55 27 -97 -36 -51 -78 21 -19 40 -20 214
-11 34 2 41 -2 53 -26 8 -16 11 -39 8 -52 l-6 -23 -79 34 c-106 46 -214 62
-318 46 -61 -9 -104 -25 -198 -71 -92 -46 -137 -62 -194 -71 -119 -17 -178
-57 -253 -169 -16 -23 -54 -58 -85 -77 -72 -45 -107 -77 -144 -131 -27 -38
-34 -43 -70 -43 -32 0 -41 4 -51 25 -32 71 -258 54 -403 -31 -59 -34 -152
-119 -170 -155 -21 -39 -19 -93 5 -139 26 -50 25 -113 -2 -170 -60 -127 2
-300 128 -359 63 -30 94 -63 94 -101 0 -45 14 -66 68 -97 40 -24 58 -28 119
-28 82 0 115 17 148 78 36 67 60 43 37 -37 -13 -45 -13 -61 8 -180 15 -91 30
-146 48 -180 46 -84 120 -125 227 -126 48 0 74 -7 133 -36 91 -45 145 -48 227
-10 70 32 71 32 52 2 -9 -12 -26 -56 -38 -97 -27 -91 -53 -145 -74 -153 -9 -3
-34 -6 -56 -6 -43 0 -46 -7 -23 -52 16 -30 16 -33 -5 -49 -28 -23 -123 -59
-181 -69 -46 -8 -32 -13 30 -11 50 2 144 39 170 66 12 13 23 35 24 49 1 20 9
29 33 36 53 18 80 52 103 131 42 140 84 190 160 188 33 0 33 -1 12 -11 -27
-13 -38 -49 -23 -76 14 -26 -4 -42 -45 -42 -43 0 -57 -20 -49 -69 6 -35 4 -41
-17 -51 -30 -16 -68 -51 -68 -63 0 -5 13 2 29 15 17 12 41 31 55 41 17 12 26
28 28 55 3 35 5 37 40 40 45 4 62 22 60 69 -2 44 13 73 37 73 25 0 29 -13 37
-128 11 -159 -2 -206 -117 -439 -81 -164 -106 -207 -138 -232 -21 -17 -42 -31
-46 -31 -13 0 -181 113 -310 210 -671 501 -1098 1122 -1237 1800 -25 123 -35
391 -19 526 48 407 220 808 457 1062 139 150 303 258 469 308 122 37 308 40
430 7 221 -60 425 -185 652 -397 50 -48 94 -83 97 -78 2 4 -11 46 -30 93 -42
99 -74 188 -74 203 0 16 108 -93 250 -254 71 -80 148 -161 172 -180 53 -44
104 -80 113 -80 3 0 3 42 -1 93 -4 64 -3 100 5 115 16 30 27 27 40 -10 25 -70
109 -156 126 -128 12 19 -8 82 -45 139 -44 68 -53 91 -41 110 7 11 15 6 39
-20 17 -19 33 -31 37 -27 3 3 13 36 20 72 29 136 97 237 310 457 58 60 105
106 105 103 0 -12 -93 -159 -170 -270 -110 -158 -168 -257 -206 -348 -33 -79
-35 -120 -5 -77 43 60 58 74 75 68 16 -6 16 -9 2 -29 -9 -12 -16 -35 -16 -50
0 -37 32 -38 51 -1 23 44 175 249 257 348 102 122 426 443 539 534 51 41 91
76 89 78 -6 7 -146 -67 -207 -108 -31 -21 -94 -69 -140 -107 -111 -90 -139
-109 -175 -118 -25 -6 -18 4 56 81 336 345 720 578 1073 650 110 22 277 29
370 16 343 -49 741 -436 847 -825 12 -43 20 -80 17 -82 -2 -3 -25 33 -51 79
-74 131 -194 283 -314 398 -170 162 -340 256 -531 295 -112 22 -302 15 -416
-16 -79 -21 -247 -95 -315 -139 -42 -27 -38 -27 135 19 145 38 276 44 368 17
31 -10 57 -21 57 -25 0 -4 -40 -17 -89 -29 -118 -30 -196 -60 -229 -88 -23
-20 -25 -27 -17 -50 6 -16 21 -36 35 -47 27 -19 52 -22 195 -18 99 2 128 -6
240 -63 467 -239 916 -919 1125 -1702 116 -434 131 -903 39 -1201 -28 -90 -24
-108 24 -112 33 -3 37 -6 37 -31 0 -45 -143 -452 -158 -450 -4 0 -32 38 -62
85 -30 47 -87 123 -127 169 -66 77 -72 87 -63 110 6 15 10 28 10 29 0 2 -18 8
-39 15 -50 15 -117 81 -191 191 -63 93 -94 126 -125 132 -17 3 -22 18 -37 108
-25 157 -25 160 15 160 36 0 71 20 87 50 9 17 6 22 -24 34 -79 33 -70 100 29
205 74 78 89 110 80 167 -5 37 -3 43 20 58 l26 17 -30 25 c-61 51 -65 110 -30
419 30 261 30 371 2 448 -30 80 -85 151 -154 197 -62 43 -79 63 -72 89 3 11
-7 22 -29 33 -37 17 -111 76 -241 190 -119 104 -193 140 -302 146 -69 4 -99 0
-175 -22 -106 -30 -149 -32 -193 -9 -49 25 -145 21 -262 -12 -78 -22 -131 -30
-240 -35 -156 -7 -180 -15 -270 -91 -27 -23 -72 -51 -100 -64 -54 -24 -113
-82 -144 -142 -10 -21 -46 -64 -80 -95 -33 -31 -63 -68 -67 -82 -5 -23 6 -71
31 -128 6 -15 2 -18 -18 -18 -30 0 -37 15 -25 51 15 43 -21 108 -60 109 -7 0
-1 -11 14 -23 27 -23 27 -25 14 -71 -9 -35 -10 -53 -2 -71 16 -35 56 -58 95
-53 l34 4 7 -166 c4 -91 9 -174 11 -185 2 -11 4 -55 4 -98 l1 -79 55 -53 c61
-58 73 -95 30 -95 -34 0 -31 -17 6 -38 30 -17 31 -18 25 -77 -4 -33 -20 -114
-36 -179 -34 -138 -36 -153 -14 -184 13 -20 24 -22 93 -22 91 0 91 0 91 -89 0
-63 18 -98 53 -103 17 -2 23 -11 25 -38 5 -45 19 -61 47 -54 13 3 33 1 44 -6
19 -9 21 -19 20 -83 -1 -83 8 -111 50 -160 70 -80 136 -77 393 17 176 65 189
68 219 56 53 -22 72 -80 79 -240 5 -129 6 -138 37 -189 l31 -55 -68 -73 c-88
-95 -113 -146 -117 -246 -3 -74 -21 -127 -44 -127 -5 0 -9 -4 -9 -10 0 -5 6
-10 13 -10 6 0 18 -4 26 -9 11 -7 2 -27 -42 -97 -163 -258 -207 -531 -189
-1181 l3 -133 26 0 c14 0 78 12 142 26 398 88 734 268 1109 592 34 30 62 52
62 49 0 -8 -132 -198 -214 -307 -137 -184 -323 -397 -520 -598 -110 -111 -196
-205 -193 -208 3 -4 53 21 109 54 136 80 284 151 332 159 l39 6 -38 -59 c-51
-80 -103 -141 -278 -325 -164 -173 -197 -214 -197 -242 0 -18 5 -19 63 -14
151 14 251 77 457 288 144 147 234 229 253 229 12 0 -19 -66 -68 -141 -55 -85
-157 -221 -313 -418 -158 -197 -200 -261 -173 -261 28 0 571 517 833 793 578
609 957 1122 1233 1667 239 474 384 926 456 1423 l21 149 -31 32 c-41 43 -40
71 10 161 34 63 41 87 49 164 18 168 -4 335 -100 776 -62 284 -93 457 -87 484
2 11 14 -2 37 -36 18 -29 37 -53 41 -53 29 0 -214 547 -343 773 -225 396 -499
709 -794 908 -40 27 -76 49 -79 49 -12 0 -2 -35 45 -164 43 -118 63 -206 49
-220 -2 -2 -42 30 -89 71 -279 244 -567 402 -849 463 -113 25 -275 39 -381 33z"/>
</g>
</svg>
