<?xml version="1.0" standalone="no"?>
<!DOCTYPE svg PUBLIC "-//W3C//DTD SVG 20010904//EN"
 "http://www.w3.org/TR/2001/REC-SVG-20010904/DTD/svg10.dtd">
<svg version="1.0" xmlns="http://www.w3.org/2000/svg"
 width="512.000000pt" height="512.000000pt" viewBox="0 0 512.000000 512.000000"
 preserveAspectRatio="xMidYMid meet">

<g transform="translate(0.000000,512.000000) scale(0.100000,-0.100000)"
fill="#000000" stroke="none">
<path d="M3892 5089 c-253 -22 -510 -140 -692 -319 -161 -159 -260 -343 -306
-574 -20 -95 -14 -307 10 -396 8 -30 20 -120 26 -199 6 -80 13 -147 15 -150 3
-2 21 10 40 29 l34 33 18 -33 c43 -79 144 -235 232 -360 52 -74 122 -173 155
-220 177 -251 330 -533 399 -736 45 -131 82 -282 102 -419 16 -114 32 -145 75
-145 41 0 61 32 71 115 36 291 141 593 304 872 54 90 134 211 425 637 168 246
257 431 295 616 23 111 23 297 0 405 -64 303 -276 572 -565 720 -203 103 -408
143 -638 124z"/>
<path d="M2801 3602 c-15 -35 -10 -139 11 -235 l10 -49 28 27 28 27 -25 71
c-14 40 -28 99 -32 132 l-6 60 -14 -33z"/>
<path d="M1105 1639 c-92 -19 -334 -39 -470 -39 l-145 0 0 -310 c0 -170 2
-310 4 -310 2 0 151 151 331 335 180 184 326 334 324 334 -2 -1 -22 -5 -44
-10z"/>
<path d="M4020 730 l-65 -60 -1526 0 c-1345 0 -1528 -2 -1539 -15 -11 -13 176
-15 1671 -15 l1683 0 -74 75 c-41 41 -77 75 -80 75 -3 -1 -34 -28 -70 -60z"/>
</g>
</svg>
