<?xml version="1.0" standalone="no"?>
<!DOCTYPE svg PUBLIC "-//W3C//DTD SVG 20010904//EN"
 "http://www.w3.org/TR/2001/REC-SVG-20010904/DTD/svg10.dtd">
<svg version="1.0" xmlns="http://www.w3.org/2000/svg"
 width="445.000000pt" height="720.000000pt" viewBox="0 0 445.000000 720.000000"
 preserveAspectRatio="xMidYMid meet">

<g transform="translate(0.000000,720.000000) scale(0.100000,-0.100000)"
fill="#000000" stroke="none">
<path d="M2065 7194 c-16 -2 -73 -9 -125 -15 -680 -76 -1294 -478 -1648 -1078
-151 -258 -243 -544 -277 -870 -24 -227 -15 -414 32 -636 53 -254 119 -413
336 -800 170 -305 218 -383 505 -825 401 -616 543 -856 741 -1250 255 -510
420 -952 542 -1455 63 -258 60 -249 71 -195 121 591 359 1236 665 1805 190
353 322 571 661 1090 310 474 437 689 586 985 143 286 186 391 226 545 47 183
64 320 64 515 0 452 -112 829 -355 1195 -385 579 -966 918 -1694 985 -104 9
-264 11 -330 4z m350 -1384 c270 -69 480 -273 560 -545 33 -111 38 -278 11
-388 -67 -279 -282 -499 -563 -579 -110 -31 -286 -31 -396 0 -281 80 -496 300
-563 579 -27 110 -22 277 11 388 79 270 289 474 556 545 104 27 279 27 384 0z"/>
</g>
</svg>
